<svg xmlns="http://www.w3.org/2000/svg" version="1.1" xmlns:xlink="http://www.w3.org/1999/xlink" xmlns:svgjs="http://svgjs.dev/svgjs" width="1440" height="560" preserveAspectRatio="none" viewBox="0 0 1440 560"><g mask="url(&quot;#SvgjsMask1000&quot;)" fill="none"><rect width="1440" height="560" x="0" y="0" fill="#0e2a47"></rect><circle r="9.085" cx="214.19500000000002" cy="26.145" filter="url(#SvgjsFilter1001)" fill="rgba(51, 121, 194, 0.58)"></circle><circle r="6.175" cx="1125.415" cy="140.10500000000002" filter="url(#SvgjsFilter1001)" fill="rgba(51, 121, 194, 0.58)"></circle><circle r="4.775" cx="963.535" cy="365.685" filter="url(#SvgjsFilter1001)" fill="rgba(51, 121, 194, 0.58)"></circle><circle r="7.075" cx="670.4050000000001" cy="197.125" filter="url(#SvgjsFilter1001)" fill="rgba(51, 121, 194, 0.58)"></circle><circle r="5.915" cx="641.4549999999999" cy="332.915" filter="url(#SvgjsFilter1001)" fill="rgba(51, 121, 194, 0.58)"></circle><circle r="8.38" cx="227.6" cy="549.23" filter="url(#SvgjsFilter1001)" fill="rgba(51, 121, 194, 0.58)"></circle><circle r="8.965" cx="543.995" cy="297.74499999999995" filter="url(#SvgjsFilter1001)" fill="rgba(51, 121, 194, 0.58)"></circle><circle r="6.655" cx="1322.885" cy="44.645" filter="url(#SvgjsFilter1001)" fill="rgba(51, 121, 194, 0.58)"></circle><circle r="8.995" cx="705.575" cy="21.475" filter="url(#SvgjsFilter1001)" fill="rgba(51, 121, 194, 0.58)"></circle><circle r="6.52" cx="119.67999999999999" cy="565.41" filter="url(#SvgjsFilter1001)" fill="rgba(51, 121, 194, 0.58)"></circle><circle r="9.025" cx="1247.365" cy="508.73499999999996" filter="url(#SvgjsFilter1001)" fill="rgba(51, 121, 194, 0.58)"></circle><circle r="7.49" cx="540.82" cy="456.34000000000003" filter="url(#SvgjsFilter1001)" fill="rgba(51, 121, 194, 0.58)"></circle><circle r="6.945" cx="1016.335" cy="31.175" filter="url(#SvgjsFilter1001)" fill="rgba(51, 121, 194, 0.58)"></circle><circle r="8.975" cx="1195.145" cy="524.865" filter="url(#SvgjsFilter1001)" fill="rgba(51, 121, 194, 0.58)"></circle><circle r="7.615" cx="809.175" cy="304.255" filter="url(#SvgjsFilter1001)" fill="rgba(51, 121, 194, 0.58)"></circle><circle r="6.555" cx="890.685" cy="61.805" filter="url(#SvgjsFilter1001)" fill="rgba(51, 121, 194, 0.58)"></circle><circle r="5.3" cx="376.56" cy="306.31" filter="url(#SvgjsFilter1001)" fill="rgba(51, 121, 194, 0.58)"></circle><circle r="7.335" cx="157.845" cy="178.775" filter="url(#SvgjsFilter1001)" fill="rgba(51, 121, 194, 0.58)"></circle><circle r="9.225" cx="93.32499999999999" cy="304.95500000000004" filter="url(#SvgjsFilter1001)" fill="rgba(51, 121, 194, 0.58)"></circle><circle r="8.245" cx="917.235" cy="276.125" filter="url(#SvgjsFilter1001)" fill="rgba(51, 121, 194, 0.58)"></circle><path d="M588.9 128.5L578 178.4 562.1 188.1 565.8 171.3C566.7 169.6 565.3 168.1 563.6 167.2 562.2 167.2 560.2 168.3 560.1 169.8L554.6 192.9 539.2 202.9 538.7 184.6 555 167.1C555 167.1 555.3 166.5 555.3 166.5 555.9 165.4 555.4 163.7 554.5 162.5 552.8 161.6 551.4 161.6 549.9 163L538.3 175.7 537.7 157.3 571.9 119.6C571.9 119.6 572.7 119.3 572.7 119.3 573.3 118.2 572.8 116.5 571.9 115.3 570.5 113.8 568.2 114.1 567.4 115.8L537.3 148.5 536 126.1 549.4 111.5C549.4 111.5 549.4 111.5 549.7 110.9 550.3 109.8 550.3 108.3 549.5 107.2 547.8 106.3 545.8 106 544.3 107.4L535.6 117.2 534.7 100.9C535 98.9 533.3 98 531.9 98 529.9 97.7 528.4 99.1 528.7 101.4L529 117.4 520 108.4C518.3 107.5 516.3 107.2 515.4 108.9 513.9 110.3 513.9 111.7 515.3 113.2L530 126.6 530.7 148.6 497.5 118.3C496.6 117.1 494.3 117.4 492.9 118.8 492.3 119.9 492 121.9 493.4 123.4L531.1 157.5 531.7 175.9 519 164.2C517.6 162.7 515.9 163.3 514.4 164.7 513.3 165.5 513.5 167.8 514.3 169L532.1 184.7 533.2 203.4 516.8 194.8 509.7 172.3C509.2 170.6 507.5 169.7 505.7 170.2 504.3 170.2 503.1 172.5 503.7 174.2L508.8 190.6 492.4 182 477.5 133.1C476.9 131.4 475.2 130.5 473.5 131 471.8 131.6 470.9 133.3 471.4 135L484.4 177.9 465.1 167.8 459.2 148.8C458.6 147.1 456.9 146.2 455.2 146.8 453.5 147.3 452.6 149 453.1 150.7L456.6 163.4 442.4 156C440.7 155.1 439 155.6 438.1 157.3 437.2 159 437.8 160.8 439.5 161.7L453.6 169.1 441.6 172.9C439.8 173.4 438.9 175.1 439.5 176.8S441.7 179.4 443.5 178.9L461.6 173.2 481.5 183.6 439.1 196.9C437.4 197.4 436.5 199.1 437.1 200.8 437.6 202.6 439.3 203.4 441 202.9L489.4 187.7 505.8 196.3 489.4 201.5C487.7 202 486.8 203.7 487.4 205.4 487.9 207.2 489.6 208 491.3 207.5L513.8 200.4 529.7 208.7 514.6 218.2 491.2 213.2C489.8 213.2 487.8 214.3 487.8 215.7 487.4 217.7 488.3 218.9 490 219.8L506.8 223.5 491.8 233 441.9 222.1C439.9 221.8 438.7 222.6 437.8 224.3 437.5 226.3 438.9 227.8 440 228.4L483.9 238.3 464.8 250 446 245.9C444.3 245 442.9 246.4 442 248.1 441.9 249.6 443.1 251.6 445.1 251.9L457.3 254.7 444 263.6C442.3 264.2 441.9 266.2 443.1 268.2 443.9 269.4 445.9 269.7 447.1 268.8L460.9 260.2 457.9 273C457.5 275 458.9 276.5 460.4 276.5 462.1 277.4 463.2 276.6 463.8 275.4 464.1 274.9 464.1 274.9 464.4 274.3L468.5 255.5 487.6 243.8 477.9 287.1C477 288.8 478.5 290.3 480.2 291.2 481.6 291.2 482.7 290.4 483.3 289.2 483.6 288.7 483.6 288.7 483.6 288.7L495.4 238.5 510.4 229 506.7 245.8C506.4 247.8 507.2 249 508.9 249.9 510.4 249.9 512.1 249.4 512.7 248.2 513 247.7 513 247.7 513.3 247.1L518.3 223.7 533.3 214.2 534.1 232 518.4 249.8C516.9 251.2 517.2 253.5 518 254.6 519.7 255.5 521.7 255.8 522.6 254.1L534.3 241.4 535.7 259.5 500.7 297.5C499.5 298.4 499.7 300.7 500.6 301.8 502.3 302.7 504.3 303 505.7 301.6L535.8 269 536.6 291 523.4 305.1C522 306.5 522.2 308.8 523.9 309.7 524.8 310.8 526.8 311.2 528.2 309.8L537 299.9 537.8 316.2C537.8 317.7 539.2 319.1 541.2 319.4 542.1 319.2 543.2 318.3 543.8 317.2 543.8 317.2 544.1 316.6 544.4 316.1L543.6 299.7 553.4 308.5C554.3 309.6 556.6 309.4 557.7 308.6 558 308 558 308 558 308 558.9 306.3 558.4 304.6 557.2 304L543.1 290.8 541.8 268.5 575.1 298.8C576.8 299.7 578.2 299.8 579.6 298.3 579.6 298.3 579.9 297.8 579.9 297.8 580.5 296.6 580.6 295.2 579.2 293.8L541.7 259 540.8 241.3 553.5 252.9C555.2 253.8 557.2 254.2 558.1 252.5 558.7 252.8 559 252.2 559 252.2 559.6 251 559 249.3 558.2 248.2L540.4 232.4 539.9 214.1 555.8 222.4 562.8 244.8C563.4 246.5 565.6 247.7 567.4 247.2 568.5 246.3 569.4 244.6 569.4 243.2L563.7 226.5 580.2 235.1 595.4 283.4C595.9 285.2 597.6 286.1 599.3 285.5 601.1 285 602 283.3 601.4 281.5L588.1 239.2 608 249.6 613.7 267.7C614.2 269.5 615.9 270.3 617.6 269.8S620.3 267.6 619.7 265.8L615.9 253.7 630.1 261.1C631.8 262 633.5 261.5 634.4 259.8 635.3 258.1 634.8 256.4 633.1 255.5L618.9 248.1 631.3 243.7C632.1 243.4 633 243.2 633.3 242.6 633.6 242 633.6 240.6 633.3 239.7 632.8 238 631.1 237.1 629.4 237.7L610.9 243.9 591.1 233.6 633.7 219.7C634.5 219.4 635.4 219.2 635.7 218.6 636 218 636 216.6 635.8 215.7 635.2 214 633.5 213.1 631.8 213.7L583.1 229.4 566.7 220.8 583.7 216C584.5 215.7 585.1 214.6 585.4 214 585.7 213.4 586 212.9 585.7 212 585.2 210.3 582.9 209.1 581.8 209.9L558.7 216.7 542.9 208.4 558.2 198.4 581.3 203.9C582.7 203.9 584.4 203.4 585 202.3 585.3 201.7 585.3 201.7 584.8 201.4 585.7 199.7 584.5 197.7 582.5 197.3L565.7 193.6 581.1 183.6 631.2 195.3C632.7 195.4 633.8 194.5 634.4 193.4 634.7 192.8 634.7 192.8 634.7 192.8 635 190.8 634.5 189.1 632.5 188.8L588.6 178.8 607.7 167.2 626.5 171.2C628.5 171.5 629.7 170.7 630.3 169.5 630.3 169.5 630.6 169 630.6 169 630.9 167 629.5 165.5 628.3 164.9L615.2 162.4 629.1 153.8C629.4 153.2 629.7 152.6 630 152.1 630.3 151.5 630.3 150.1 630 149.2 628.6 147.8 626.9 146.9 625.5 148.3L611.6 156.9 614.7 144.1C615 142.1 613.6 140.6 612.5 140 610.5 139.7 609 141.1 608.1 142.8L604.1 161.7 585.5 173.6 595.2 130.3C595.5 128.3 594.4 126.3 592.9 126.2 590.9 125.9 589.2 126.5 588.9 128.5Z" fill="rgba(51, 121, 194, 0.58)"></path><path d="M1021.9 134.1L990 132.2 982.5 123.3 993.2 124C994.4 124.3 995.1 123.3 995.5 122.2 995.4 121.3 994.5 120.2 993.6 120.3L978.8 119.1 971.1 110.6 982.4 108.5 994.8 116.9C994.8 116.9 995.1 117 995.1 117 995.9 117.3 996.9 116.8 997.5 116.1 997.9 115 997.8 114.1 996.8 113.3L987.8 107.4 999.1 105.3 1025.7 122.7C1025.7 122.7 1026 123.2 1026 123.2 1026.7 123.5 1027.8 123 1028.4 122.3 1029.1 121.3 1028.8 119.9 1027.6 119.5L1004.6 104.1 1018.2 101.2 1028.6 108C1028.6 108 1028.6 108 1029 108.2 1029.7 108.4 1030.6 108.3 1031.2 107.7 1031.6 106.5 1031.6 105.3 1030.6 104.5L1023.7 100 1033.7 97.9C1034.9 97.9 1035.3 96.8 1035.2 95.9 1035.2 94.7 1034.2 93.9 1032.8 94.3L1022.9 96 1027.6 89.6C1028 88.4 1028 87.2 1026.9 86.8 1025.9 86 1025 86.1 1024.2 87.1L1017.4 97.5 1003.8 100.1 1019.3 76.6C1020 76 1019.6 74.6 1018.6 73.8 1017.8 73.6 1016.6 73.6 1015.8 74.6L998.4 101.2 987.1 103.3 993.1 94.4C993.9 93.3 993.3 92.3 992.3 91.6 991.7 90.9 990.3 91.3 989.7 91.9L981.7 104.4 970.3 106.9 974 95.9 987.2 89.4C988.2 88.9 988.6 87.8 988.1 86.7 987.9 85.9 986.4 85.3 985.4 85.8L975.8 90.6 979.5 79.6 1008.3 65.7C1009.3 65.2 1009.7 64.1 1009.2 63.1 1008.7 62 1007.5 61.7 1006.5 62.2L981.3 74.3 985.6 61.4 996.8 55.9C997.8 55.4 998.2 54.3 997.7 53.3 997.2 52.2 996.1 51.9 995 52.4L987.6 55.7 990.8 46.3C991.1 45.1 990.6 44.1 989.5 43.7 988.4 43.4 987.4 43.9 987 45L983.8 54.5 980.3 47.4C979.8 46.4 978.6 46 977.6 46.5S976.2 48.1 976.7 49.1L982 59.8 977.5 73 965.2 48.2C964.7 47.2 963.6 46.8 962.6 47.3 961.5 47.8 961.2 48.9 961.7 49.9L975.7 78.3 972 89.3 967.2 79.7C966.7 78.7 965.6 78.3 964.6 78.8 963.6 79.3 963.2 80.4 963.7 81.4L970.2 94.6 966.6 105.2 959.3 96.9 960.1 81.9C960 81.1 959.1 79.9 958.2 80 957 80 956.3 80.7 956 81.8L955.3 92.5 948 84.2 949.9 52.3C949.9 51 949.3 50.4 948.1 50 946.9 50 946.1 51 945.8 51.8L943.9 79.8 934.9 69.2 935.6 57.2C936 56 934.9 55.3 933.8 54.9 932.9 55 931.8 55.9 931.8 57.2L931.2 65 924.4 57.6C923.9 56.6 922.7 56.6 921.5 57.5 920.9 58.1 920.9 59.4 921.5 60L928.2 67.8 920 67.1C918.7 67.1 917.9 68.1 918.1 69 917.7 70.1 918.3 70.8 919.1 71 919.4 71.1 919.4 71.1 919.8 71.3L931.8 72 940.9 82.6 913.2 80.9C912.1 80.5 911.3 81.5 910.9 82.6 911 83.5 911.7 84.1 912.4 84.4 912.8 84.5 912.8 84.5 912.8 84.5L944.9 86.9 952.2 95.3 941.5 94.6C940.2 94.6 939.6 95.3 939.2 96.4 939.3 97.3 939.8 98.3 940.6 98.6 941 98.7 941 98.7 941.3 98.8L956.3 99.6 963.6 108 952.7 110.2 940.2 102.2C939.2 101.5 937.8 101.8 937.1 102.5 936.8 103.6 936.8 104.9 937.9 105.2L946.8 111.2 935.8 113.8 909 95.9C908.3 95.3 906.9 95.6 906.3 96.3 905.9 97.4 905.9 98.7 906.9 99.4L930 114.8 916.5 117.4 906.5 110.7C905.5 109.9 904.1 110.3 903.7 111.4 903.1 112.1 903.1 113.3 904.1 114.1L911 118.5 901 120.6C900.1 120.8 899.4 121.8 899.4 123 899.6 123.6 900.2 124.2 901 124.4 901 124.4 901.4 124.6 901.8 124.7L911.8 122.6 907.3 129.5C906.7 130.2 907 131.6 907.7 132.2 908 132.3 908 132.3 908 132.3 909.2 132.7 910.2 132.2 910.5 131.4L917.2 121.5 930.9 118.5 915.3 142C915 143.1 915.1 144 916.1 144.7 916.1 144.7 916.5 144.9 916.5 144.9 917.2 145.1 918.1 145 918.9 144L936.7 117.5 947.6 115.3 941.6 124.2C941.2 125.4 941.2 126.6 942.4 127 942.2 127.4 942.6 127.5 942.6 127.5 943.4 127.8 944.4 127.3 945 126.7L953 114.2 964.3 112.1 960.7 122.7 947.5 129.2C946.5 129.7 946 131.2 946.5 132.2 947.1 132.9 948.3 133.2 949.2 133.1L958.9 128 955.2 139 926.8 153C925.8 153.5 925.4 154.7 925.9 155.7 926.4 156.7 927.6 157.1 928.6 156.6L953.4 144.3 948.9 157.5 938.3 162.8C937.3 163.3 936.9 164.4 937.4 165.5S939 166.9 940 166.4L947.1 162.8 943.9 172.3C943.5 173.5 944 174.5 945.2 174.8 946.3 175.2 947.3 174.7 947.7 173.6L950.9 164.1 954.8 171.3C955.1 171.9 955.3 172.4 955.7 172.5 956.1 172.6 957 172.5 957.5 172.2 958.5 171.7 958.9 170.6 958.4 169.6L952.7 158.8 957.2 145.6 969.9 170.5C970.1 171 970.4 171.5 970.7 171.7 971.1 171.8 972 171.7 972.5 171.4 973.5 170.9 973.9 169.8 973.4 168.8L959 140.2 962.7 129.3 967.3 139.3C967.6 139.8 968.4 140 968.7 140.2 969.1 140.3 969.5 140.4 970 140.2 971 139.7 971.5 138.2 970.9 137.5L964.5 124 968.1 113.3 975.8 121.9 974.6 136.6C974.7 137.5 975.2 138.5 975.9 138.8 976.3 138.9 976.3 138.9 976.5 138.6 977.6 138.9 978.7 138.1 978.7 136.8L979.4 126 987.1 134.6 984.7 166.7C984.8 167.6 985.4 168.2 986.2 168.4 986.6 168.6 986.6 168.6 986.6 168.6 987.8 168.6 988.9 168.1 988.9 166.8L990.7 138.7 999.8 149.4 999.1 161.4C999.1 162.7 999.8 163.3 1000.5 163.6 1000.5 163.6 1000.9 163.7 1000.9 163.7 1002.2 163.7 1002.9 162.7 1003.2 161.9L1003.5 153.6 1010.1 161.3C1010.5 161.5 1010.9 161.6 1011.3 161.7 1011.6 161.9 1012.5 161.7 1013 161.5 1013.8 160.5 1014.2 159.3 1013.2 158.6L1006.5 150.8 1014.7 151.5C1016 151.5 1016.8 150.5 1017 149.7 1017 148.5 1016 147.7 1014.9 147.3L1002.9 146.6 993.7 136.3 1021.4 138.1C1022.6 138.1 1023.8 137.2 1023.6 136.4 1023.7 135.1 1023.2 134.1 1021.9 134.1Z" fill="rgba(51, 121, 194, 0.58)"></path><path d="M1332.3 181.4L1325.8 170.7 1334.2 170.2C1335.1 170.2 1336 169.3 1336.3 168.1 1335.9 167 1335.1 166.1 1334.2 166L1323.1 166.5 1317.1 156.5 1339.6 155.8C1341.1 155.7 1342 154.8 1341.7 153.7 1341.9 152.5 1341 151.6 1339.6 151.7L1314.7 152.5 1309 143.5 1320.5 122 1329.8 121.5 1343.5 144.3C1343.9 144.5 1344.2 144.7 1344.6 144.9 1344.9 145 1345.8 145.1 1346.4 144.9 1347.6 144.2 1347.8 143 1347 142.1L1334.5 121.3 1345.9 121.1 1352.6 131.5C1352.4 131.8 1352.8 132 1353.1 132.2 1353.9 132.6 1354.7 132.6 1355.5 132.1 1356.2 131.6 1356.4 130.3 1356.1 129.2L1350.6 120.9 1364.9 120.3C1365.8 120.4 1366.7 119.5 1366.9 118.3 1366.6 117.2 1365.7 116.3 1364.9 116.2L1351.4 116.8 1355.4 109.4C1355.9 108.3 1355.3 107 1354.6 106.6 1353.5 106.1 1352.1 106.2 1351.5 107.3L1346.4 116.8 1334.9 117 1345.5 97.3C1346.1 96.2 1345.7 95.1 1344.7 94.6 1343.6 94 1342.5 94.3 1342 95.4L1330.3 117.3 1320.4 117.9 1307.6 97 1311.9 88.9 1337.3 87.9C1338.6 88.1 1339.7 86.9 1339.4 85.8 1339.6 84.6 1338.5 84 1337.3 83.8L1314.2 84.6 1319.6 74.4 1331.1 74.2C1332 74.2 1333.1 73 1333.1 72.1S1331.9 70.1 1330.7 69.9L1321.9 70.2 1328.5 57.8C1329.1 56.7 1328.4 55.5 1327.3 54.9 1326.6 54.5 1325.2 54.7 1324.6 55.7L1318 68.1 1313 60.4C1312.5 59.7 1311.5 59.1 1310.2 59.8 1309.5 60.3 1309.1 61.9 1309.6 62.7L1315.8 72.3 1310.3 82.5 1298.1 62.9C1297.2 62 1296.2 61.4 1294.9 62.1 1294.2 62.6 1293.8 64.2 1294.3 64.9L1308 86.8 1303.7 94.9 1279.2 95.8 1274.2 87.3 1285.9 65.4C1286.4 64.4 1286.1 63.3 1285.1 62.7 1284 62.2 1282.6 62.3 1282 63.4L1271.4 83.1 1265.3 73.5 1270.3 63.9C1270.9 62.9 1270.6 61.8 1269.5 61.2 1268.5 60.7 1267.4 61 1266.8 62L1262.9 69.5 1255.8 58C1255.3 57.3 1253.7 56.9 1253 57.4 1252.1 58.3 1251.5 59.3 1252.4 60.2L1259.6 72.2 1249.9 72.5C1248.8 72.8 1247.9 73.7 1247.9 74.6 1247.8 75.5 1248.4 76.2 1249.1 76.6 1249.1 76.6 1249.4 76.8 1250 76.6L1262.3 76.4 1268.5 86.1 1244.3 87.2C1243.1 87 1242.1 87.9 1242.3 89.3 1242.4 89.8 1242.6 90.4 1243.3 90.8 1243.7 91 1244 91.1 1244.4 91.3L1270.9 90.1 1275.7 98.1 1264.2 119.6 1253.6 119.9 1240.4 98.7C1239.7 97.5 1238.5 97.3 1237.6 98.1 1236.5 98.5 1236.3 99.7 1237 101L1249 120.1 1237.3 120.7 1231.5 111.2C1231 110.5 1229.7 110.3 1228.6 110.6 1227.7 111.5 1227.2 112.5 1228 113.4L1232.3 120.7 1219.8 121.3C1218.5 121.1 1218 122.1 1217.7 123.4 1217.9 123.9 1218.4 124.6 1219.1 125 1219.1 125 1219.5 125.2 1219.8 125.4L1233.3 124.8 1228.6 133.7C1228.2 134.4 1228.3 135.8 1229.4 136.4 1230.4 136.9 1231.7 136.3 1232.1 135.6L1237.9 124.6 1249.6 124 1238.1 145.6C1237.5 146.6 1238.2 147.9 1239.3 148.5S1241.4 148.7 1242 147.6L1254.6 124 1264.3 123.7 1277.1 144.6 1272.2 153.8 1246.4 154.6C1245.3 154.9 1244.4 155.8 1244.2 157 1244.4 157.5 1244.9 158.3 1245.6 158.6 1246 158.8 1246.3 159 1246.9 158.9L1270 158.1 1264.5 168.3 1252.8 168.9C1251.9 168.8 1251 169.7 1250.8 171 1251.1 172 1252 173 1252.9 173L1262.2 172.5 1256.2 183.8C1255.8 184.5 1256.3 186.1 1257 186.5 1258.1 187.1 1259.7 186.6 1260.1 185.9L1266.1 174.6 1270.6 182.4C1270.9 182.6 1271.3 182.8 1271.6 183 1272.3 183.3 1273.2 183.4 1273.8 183.2 1274.7 182.3 1274.9 181.1 1274.6 180L1268.4 170.4 1273.8 160.1 1286 179.8C1286.7 181 1287.9 181.3 1288.7 180.7 1289.9 180.1 1290.2 178.8 1289.8 177.7L1276.1 155.9 1281 146.7 1305.5 145.8 1310.7 154 1298.1 177.6C1297.5 178.7 1297.8 179.7 1298.9 180.3 1299.9 180.9 1301 180.5 1301.6 179.5L1313.1 158 1319.1 168 1313.2 178.9C1312.9 179.6 1313.4 181.2 1314.4 181.8 1315.5 182.4 1316.7 181.7 1317.1 181L1321.8 172.2 1328.9 183.6C1329.2 183.8 1329.2 183.8 1329.6 184 1330.3 184.4 1331.2 184.4 1331.7 184.2 1332.6 183.4 1332.8 182.1 1332.3 181.4ZM1283.3 142.5L1280.6 142.4 1279.4 140.4 1268.9 123.5 1267.7 121.5 1268.9 119.4 1278.1 102.1 1279.2 100 1281.5 99.8 1301.4 99.1 1303.8 99 1305.3 101.2 1315.4 117.9 1317 120.1 1315.8 122.2 1306.6 139.5 1305.5 141.6 1302.8 141.6 1283.3 142.5Z" fill="rgba(51, 121, 194, 0.58)"></path><path d="M1174.8 321.2L1160.9 299.8 1163 290.7 1167.7 298C1168 298.9 1169 298.9 1169.9 298.6 1170.4 298.1 1170.7 297 1170.2 296.5L1164 286.4 1165.8 277.4 1172.5 283.7 1173 295.6C1173 295.6 1173.1 295.9 1173.1 295.9 1173.3 296.5 1174.1 296.9 1174.8 297 1175.7 296.7 1176.2 296.2 1176.2 295.2L1175.8 286.6 1182.5 292.9 1183.9 318.3C1183.9 318.3 1183.7 318.7 1183.7 318.7 1183.9 319.3 1184.7 319.7 1185.4 319.8 1186.4 319.8 1187.2 318.9 1186.9 318L1185.8 295.8 1194.2 303.2 1194.7 313.2C1194.7 313.2 1194.7 313.2 1194.8 313.5 1195 314.1 1195.5 314.6 1196.2 314.7 1197.1 314.4 1198 313.8 1198 312.8L1197.5 306.2 1203.6 311.6C1204.2 312.5 1205.2 312.2 1205.7 311.7 1206.5 311.1 1206.5 310.1 1205.6 309.3L1199.8 303.8 1206.2 303.8C1207.1 303.5 1207.9 302.9 1207.6 302 1207.6 301 1207.1 300.4 1206.1 300.4L1196.2 300.9 1188.1 293.4 1210.5 292.3C1211.3 292.4 1212 291.5 1212 290.5 1211.8 289.9 1211.2 289.1 1210.2 289L1184.8 290.5 1178.1 284.2 1186.7 283.8C1187.7 283.8 1188.1 283 1188.1 282 1188.2 281.3 1187.3 280.6 1186.6 280.5L1174.8 281.2 1167.7 275.1 1176.6 272.3 1187 277.6C1187.8 278.1 1188.8 277.8 1189.2 277 1189.7 276.5 1189.3 275.2 1188.5 274.8L1180.8 270.9 1189.7 268.1 1212.3 280C1213.1 280.4 1214 280.1 1214.4 279.3 1214.9 278.5 1214.6 277.6 1213.8 277.1L1193.9 266.7 1204.3 263.4 1213.2 267.9C1214 268.3 1214.9 268.1 1215.3 267.2 1215.7 266.4 1215.4 265.5 1214.6 265.1L1208.9 261.9 1216.5 259.5C1217.4 259.2 1217.8 258.4 1217.5 257.5 1217.2 256.5 1216.4 256.1 1215.5 256.4L1207.9 258.9 1210.8 253.2C1211.2 252.4 1210.9 251.5 1210.1 251.1S1208.4 251 1208 251.8L1203.6 260.2 1193 263.6 1203.1 243.9C1203.5 243.1 1203.2 242.2 1202.4 241.8 1201.6 241.4 1200.7 241.7 1200.3 242.5L1188.7 265 1179.9 267.8 1183.8 260.2C1184.2 259.4 1183.9 258.5 1183.1 258.1 1182.3 257.7 1181.4 257.9 1181 258.8L1175.6 269.2 1167.1 271.9 1169 263.3 1179 256.7C1179.5 256.2 1179.8 255.1 1179.3 254.6 1178.7 253.8 1178 253.7 1177.1 254L1169.9 258.6 1171.8 249.9 1193.2 236C1194 235.4 1194.1 234.7 1193.8 233.8 1193.2 233 1192.2 233 1191.6 233.2L1172.6 245.3 1175.2 234.4 1183.2 229.1C1184.2 228.8 1184.2 227.8 1183.9 226.9 1183.4 226.4 1182.3 226.1 1181.5 226.7L1176.2 230.1 1177.7 222.2C1178.1 221.4 1177.5 220.6 1176.4 220.2 1175.7 220.1 1174.8 220.7 1174.7 221.4L1172.9 229.4 1169.4 223.8C1168.8 223 1167.8 223 1167.3 223.5 1166.4 223.8 1166.3 224.5 1166.5 225.1 1166.6 225.4 1166.6 225.4 1166.7 225.7L1172 233.8 1169.4 244.7 1157.4 226C1157.1 225.1 1156.1 225.1 1155.2 225.4 1154.6 225.9 1154.5 226.6 1154.7 227.2 1154.8 227.5 1154.8 227.5 1154.8 227.5L1168.5 249.3 1166.6 258 1161.9 250.7C1161.4 249.9 1160.6 249.8 1159.7 250.1 1159.2 250.6 1158.8 251.4 1159 252 1159.1 252.3 1159.1 252.3 1159.2 252.6L1165.8 262.6 1163.8 271.3 1157.2 265.4 1156.5 253.5C1156.5 252.5 1155.6 251.8 1154.9 251.7 1153.9 252 1153.1 252.6 1153.4 253.5L1153.8 262.1 1146.9 256.2 1145.7 230.4C1145.8 229.7 1144.9 229 1144.2 228.9 1143.3 229.2 1142.5 229.8 1142.4 230.8L1143.5 253 1135.4 245.5 1135 235.9C1135 234.8 1134.1 234.1 1133.2 234.4 1132.5 234.3 1131.7 234.9 1131.7 235.9L1132.1 242.5 1126 237.1C1125.5 236.6 1124.5 236.5 1123.7 237.1 1123.4 237.5 1123.3 238.2 1123.5 238.9 1123.5 238.9 1123.6 239.2 1123.7 239.5L1129.8 244.9 1123.3 245.3C1122.5 245.2 1121.8 246.1 1121.7 246.8 1121.8 247.1 1121.8 247.1 1121.8 247.1 1122.1 248.1 1122.9 248.5 1123.5 248.3L1133.1 247.9 1141.6 255.3 1119.1 256.4C1118.2 256.7 1117.6 257.2 1117.6 258.2 1117.6 258.2 1117.7 258.5 1117.7 258.5 1117.9 259.1 1118.4 259.6 1119.4 259.7L1145 258.5 1151.6 264.5 1143 264.9C1142 265.2 1141.2 265.8 1141.5 266.7 1141.2 266.8 1141.3 267.1 1141.3 267.1 1141.5 267.7 1142.3 268.1 1143 268.2L1154.9 267.5 1161.6 273.7 1153 276.4 1142.6 271.1C1141.8 270.6 1140.6 271 1140.1 271.8 1140 272.5 1140.3 273.5 1140.8 274L1148.8 277.8 1139.9 280.6 1117.4 269C1116.6 268.6 1115.7 268.9 1115.3 269.7 1114.9 270.5 1115.2 271.4 1116 271.9L1135.7 282 1125 285.4 1116.6 281.1C1115.8 280.7 1114.8 281 1114.4 281.8S1114.3 283.5 1115.1 283.9L1120.7 286.8 1113.1 289.2C1112.2 289.5 1111.8 290.3 1112.1 291.2 1112.4 292.2 1113.2 292.6 1114.1 292.3L1121.7 289.8 1118.9 295.8C1118.7 296.2 1118.5 296.6 1118.6 296.9 1118.7 297.2 1119.2 297.7 1119.6 297.9 1120.4 298.3 1121.3 298 1121.7 297.2L1126 288.5 1136.7 285.1 1126.6 305.1C1126.4 305.5 1126.2 305.9 1126.3 306.2 1126.4 306.5 1126.9 307 1127.3 307.2 1128.1 307.6 1129 307.3 1129.4 306.5L1140.9 283.7 1149.8 280.9 1145.5 288.6C1145.3 289 1145.5 289.6 1145.6 289.9 1145.7 290.2 1145.8 290.5 1146.2 290.7 1147 291.1 1148.2 290.8 1148.3 290L1154 279.5 1162.6 276.8 1160.7 285.7 1150.6 292C1150.1 292.5 1149.7 293.3 1149.9 293.9 1150 294.2 1150 294.2 1150.3 294.1 1150.6 295 1151.7 295.4 1152.5 294.8L1159.8 290.1 1157.9 299.1 1136.1 312.8C1135.6 313.3 1135.5 314 1135.7 314.6 1135.8 314.9 1135.8 314.9 1135.8 314.9 1136.4 315.7 1137.2 316.1 1138 315.5L1157 303.4 1154.4 314.3 1146.4 319.6C1145.6 320.2 1145.4 320.9 1145.6 321.5 1145.6 321.5 1145.7 321.8 1145.7 321.8 1146.3 322.6 1147.4 322.6 1148 322.4L1153.5 318.6 1151.7 326.6C1151.8 326.9 1151.9 327.2 1151.9 327.5 1152 327.8 1152.5 328.4 1153 328.6 1154 328.6 1154.9 328.3 1154.9 327.3L1156.7 319.3 1160.2 324.9C1160.8 325.7 1161.8 325.7 1162.4 325.5 1163.2 324.9 1163.2 323.9 1162.9 323L1157.7 315 1159.9 304.1 1171.9 322.8C1172.5 323.6 1173.6 323.9 1174.2 323.4 1175 322.8 1175.4 322 1174.8 321.2Z" fill="rgba(51, 121, 194, 0.58)"></path><path d="M970.6 361.9L948.5 365.9 952.6 353C953.1 351.7 952.3 349.8 950.6 348.8 948.8 348.7 946.9 349.5 946.8 351.3L941.2 367.2 924.1 371.1 935.9 337.8C936 336 935.2 334.2 933.9 333.6 931.7 333 929.8 333.8 929.7 335.6L916.8 372.4 890.6 377.4 903.8 349.7 874.6 359.1 883.1 333.8 921.3 326C921.7 326.4 922.2 326 922.7 325.6 923.6 324.8 924.2 323.4 923.8 322 923.4 320.7 921.7 319.6 919.9 319.5L885.4 326.7 891.5 310.3 908 306.9C908.9 307 909.4 306.6 909.9 306.1 910.4 305.7 910.9 304.4 910.6 303 910.2 301.6 908.5 300.6 907.1 301L893.8 303.2 900.7 281.9C901.7 280.2 900.4 278.7 898.7 277.7 897.3 277.2 895.5 278 894.9 280.2L887.6 301 878.7 290.9C877.5 289.4 875.2 289.7 874.2 290.6 872.8 291.8 872.7 293.7 873.9 295.1L885.3 308.1 879.2 324.5 856.5 298.5C855.2 297 853.4 296.9 851.9 298.2 851 299 850.4 301.2 851.6 302.7L876.9 331.6 868.4 356.9 851 332.1 844.5 361.6 826.8 341.4 839.2 305C839.8 302.8 838.6 301.3 837.2 300.8 835.9 300.3 834.1 301 833 302.8L822.2 336.1 810.8 323.1 816 306.6C817 304.9 816.2 303 814 302.4 812.7 301.9 810.8 302.6 810.2 304.9L805.7 317.3 791 300.4C789.7 299 787.9 298.8 786.5 300.1S784.9 303.2 786.2 304.6L800.9 321.5 788 324.2C785.8 324.5 784.7 326.3 785.1 327.7 785.4 330 787.1 331 789 330.2L806 327.3 817.4 340.3 782.9 346.6C781 347.4 780 349.1 780.4 350.5 780.7 352.8 782.4 353.8 784.3 353L822 345.6 839.7 365.8 809.6 368.3 831.8 388.9 805.6 393.9 780.3 365C779 363.6 776.8 363.9 775.8 364.7 774.3 366 774.2 367.8 775.5 369.2L798.7 395.7 781.2 399.1 769.8 386.1C768.6 384.6 766.8 384.5 765.3 385.8 764.3 386.6 763.7 388.8 765 390.3L773.8 400.4 752.2 404.8C749.9 405.1 748.9 406.9 749.7 408.8 750.1 410.1 751.3 411.6 753.2 410.8L775.2 406.8 771.2 419.7C770.6 421 771.4 422.9 772.7 423.5 774.1 424 775.5 423.6 775.9 423.2 776.4 422.8 776.9 422.4 777 421.5L782.6 405.5 799.6 401.7 787.9 434.9C787.7 436.7 788.5 438.6 789.8 439.1 791.2 439.7 792.5 439.3 793.5 438.5 794 438 794 438 794.1 437.1L807 400.4 833.2 395.3 820 423 849.2 413.6 840.7 438.9 802.5 446.8C801.1 447.1 799.6 448.4 799.9 450.7 800.3 452.1 802.1 453.1 803.9 453.2L838.4 446 832.3 462.4 815.7 465.8C813.9 465.7 812.9 467.4 813.2 469.7 813.5 471.1 815.3 472.1 817.1 472.3L830 469.5 823.1 490.8C822.1 492.5 823.3 494 825.1 495 826 495.1 827.4 494.7 827.9 494.3 828.3 493.9 828.8 493.5 828.9 492.5L836.2 471.7 845 481.8C846.3 483.3 848.6 483 849.5 482.1L849.5 482.1C851 480.9 851.1 479.1 849.8 477.6L838.5 464.6 844.6 448.2 867.3 474.3C868.6 475.7 870.4 475.8 871.8 474.6S873.4 471.5 872.1 470.1L846.9 441.1 855.4 415.9 872.7 440.6 879.3 411.1 896.9 431.4 884.5 467.7C883.9 469.9 885.2 471.4 886.5 471.9 887.8 472.5 889.7 471.7 890.7 469.9L902 437.1 913 449.7 907.8 466.1C906.7 467.9 907.5 469.7 909.7 470.3 911.1 470.9 912.9 470.1 914 468.3L918 455.5 932.7 472.3C934 473.8 935.8 473.9 937.3 472.6S938.8 469.6 937.6 468.1L922.8 451.2 935.7 448.5C936.6 448.5 937.1 448.1 937.6 447.7 938.5 446.9 938.6 446 938.7 445.1 938.4 442.8 936.6 441.7 934.8 442.5L917.8 445.5 906.4 432.5 940.8 426.2C941.3 425.7 941.8 425.3 942.3 424.9 943.3 424 943.3 423.1 943.4 422.2 943.1 420 941.3 418.9 939.5 419.7L901.8 427.1 884.1 406.9 914.2 404.4 892 383.9 918.2 378.8 943.4 407.7C944.7 409.2 947 408.9 948 408 949.4 406.8 949.5 405 948.3 403.5L925.5 377.5 942.6 373.7 953.9 386.7C955.2 388.1 957 388.2 958.4 387S960 383.9 958.8 382.5L949.9 372.3 971.5 367.9C972.4 368 972.9 367.5 973.4 367.1 973.9 366.7 974.4 365.4 974.1 364 973.7 362.6 972.4 361.1 970.6 361.9ZM899.6 399.3L874.9 401.3 869.7 425.4 855.2 405 832 412.5 842.1 390 824.2 373.4 848.8 371.4 854.1 347.3 868.2 367.3 891.8 360.3 881.2 382.2 899.6 399.3Z" fill="rgba(51, 121, 194, 0.58)"></path><path d="M270.3 511.4L259.3 459.6 267 447.2 299.6 448.7 306.6 461.8 290.2 512.3C290.1 513 290.1 513 290.1 513.6 290 514.9 290.6 516.2 292.5 516.9 294.4 517 295.7 516.4 296.5 514.5L310.7 470.4 321.3 490.7 315.3 510.3C315.3 510.3 315.2 510.9 315.2 510.9 315.2 512.2 315.7 513.5 317.6 514.3 318.9 515 320.9 513.8 321.6 511.9L326 499.3 333.6 514.4C334.2 515.7 336.1 516.4 338.1 515.9S340.1 512.8 339.6 510.8L331.9 496.4 344.6 500.2C346.4 500.9 348.4 499.7 349.2 497.8 349.2 496.5 348.7 494.6 346.8 493.8L327.2 487.8 316.7 466.8 360.8 481.1C362.7 481.8 364.7 480.6 365.4 479.3 365.5 477.4 364.9 475.5 363.1 474.8L312.5 458.9 305.5 445.1 322.8 418.4 338.1 419.1 374.1 458C375.3 459.3 377.2 459.4 378.6 458.2S380 455.1 378.8 453.7L347.1 419.5 370.7 420.7 384.1 435.4C385.4 436.7 387.3 436.8 389.3 435.6S390.7 432.5 389.5 431.1L379.7 421.1 396.9 421.9C398.9 422 400.2 420.1 400.3 418.2 400.4 416.3 399.2 415 397.3 414.9L380 414 390.1 404.9C392 403.7 392.1 401.8 390.3 400.4 389.1 399.1 387.1 399 385.8 400.2L371.1 413.6 347.4 412.5 382.2 381.5C383.5 380.3 383.7 377.7 382.4 376.4S379.3 374.9 378 376.1L338.5 412.1 323.1 411.4 308.5 382.5 316.7 370.1 368.5 359C370.5 358.5 371.2 356.6 371.3 354.7 370.7 352.7 368.8 352 366.9 351.9L321.6 362 334 342.7 354.1 338.5C356.1 338 356.8 336.1 356.9 334.1 356.3 332.8 354.4 331.5 352.5 332L339.6 334.6 348.6 320.3C349.3 319.1 348.7 317.1 347.5 315.8 345.6 315 343.7 315.6 343 316.8L334 331.1 330.7 317.5C330.2 316.2 328.3 314.9 327 315.4 325.1 315.3 324.4 316.6 324.3 318.5 324.3 318.5 324.3 319.2 324.3 319.2L328.4 339.2 316 358.5 306 313.2C305.4 311.2 304.2 309.9 302.3 310.4 300.3 311 299.6 312.2 299.5 313.5 299.5 314.1 299.5 314.1 299.5 314.1L311.1 366.6 302.9 379 270.3 377.5 263.8 364.4 279.7 313.2C280.4 312 279.2 310 278 309.3 276.1 308.6 274.1 309.7 273.4 311.6L259.1 355.8 248.5 335.4 254.6 315.9C255.3 314 254.8 312 252.8 311.9 251 311.2 249 312.4 248.3 313.6L244.5 326.9 236.8 311.8C235.6 310.5 233.7 309.8 231.8 310.3 231.1 310.9 230.4 312.2 230.3 313.4 230.3 314.1 230.3 314.1 230.9 314.8L238.5 329.8 225.3 326C223.4 325.3 222 326.5 221.3 327.8 221.3 328.4 221.3 328.4 221.3 329 221.2 330.3 221.8 331.6 223.1 332.3L242.6 338.4 253.2 358.7 209 344.5C207.1 344.4 205.2 344.9 205.1 346.8 204.4 347.5 204.4 347.5 204.4 348.1 204.3 349.4 205.5 350.7 206.8 351.4L257.9 367.3 264.4 380.4 247 407.8 232.3 407.1 196.4 367.6C195.2 366.2 192.6 366.1 191.3 367.3S189.8 371.1 191 372.5L222.8 406.6 199.7 405.5 185.7 390.8C184.5 389.4 182.6 389.4 181.2 390.6 179.9 391.8 179.8 393.7 181 395.1L190.1 405.1 172.9 404.3C171.6 404.2 169.6 405.4 169.5 407.3 169.4 409.2 171.3 411.2 172.6 411.3L189.8 412.1 179.8 421.3C179.1 421.9 178.4 422.5 178.4 423.1 178.3 424.4 179 425.1 179.6 425.7 180.8 427.1 182.7 427.2 184 425.9L199.4 412.6 222.4 413.7 187.6 444.7C187 445.3 186.9 445.9 186.9 447.2 186.8 447.9 186.8 448.5 187.4 449.2 188.6 450.5 191.2 450.6 192.5 449.4L232 414.1 246.7 414.8 261.4 443.1 253.7 456.1 201.3 467.1C200 467.7 198.7 468.9 198.6 470.2 198.6 470.8 198.6 470.8 199.2 470.9 199.1 472.8 201 474.2 202.9 473.6L248.3 463.6 235.8 483.5 215.7 487.7C214.4 488.2 213.7 489.5 213.7 490.8 213.7 490.8 213.6 491.4 213.6 491.4 213.5 493.3 215.4 494.7 217.3 494.2L230.9 490.9 221.9 505.3C221.3 505.9 221.2 506.5 221.2 507.1 221.2 508.4 221.7 509.7 222.4 509.8 224.2 511.1 226.2 510.6 227.5 509.4L236.5 495.1 239.1 508C239.7 509.9 241.5 511.3 243.5 510.8 244.8 510.2 246.1 508.3 245.6 507L241.4 487 253.8 467.7 263.9 513C264.4 515 266.3 515.7 268.2 515.8 269.5 515.2 270.9 513.3 270.3 511.4ZM296.1 441.5L271.1 440.3 267.3 440.1 265.5 436.8 254.4 415.2 252.6 411.2 254.7 408.1 267.9 387.6 269.9 384.5 273.8 384.7 298.7 385.9 302.5 386 304.3 389.3 315.4 411 317.2 414.3 315.1 418 302 438.6 299.9 441.7 296.1 441.5Z" fill="rgba(51, 121, 194, 0.58)"></path><path d="M491.6 509.9L480.6 511.7 482.7 505.3C483 504.7 482.6 503.7 481.7 503.2 480.8 503.1 479.9 503.5 479.8 504.4L476.9 512.3 468.3 514.1 474.5 497.6C474.6 496.7 474.2 495.7 473.5 495.5 472.4 495.1 471.5 495.5 471.4 496.4L464.6 514.7 451.5 517 458.3 503.2 443.7 507.7 448.1 495.1 467.3 491.5C467.5 491.8 467.7 491.6 468 491.3 468.5 490.9 468.8 490.3 468.6 489.6 468.4 488.9 467.6 488.4 466.7 488.3L449.3 491.6 452.5 483.4 460.8 481.9C461.3 481.9 461.5 481.7 461.8 481.5 462 481.3 462.3 480.6 462.1 479.9 462 479.3 461.1 478.7 460.4 478.9L453.7 479.9 457.4 469.3C457.9 468.5 457.3 467.7 456.4 467.2 455.8 466.9 454.8 467.3 454.5 468.4L450.7 478.7 446.3 473.6C445.7 472.9 444.6 473 444.1 473.4 443.3 474 443.3 474.9 443.9 475.7L449.5 482.3 446.3 490.4 435.1 477.2C434.5 476.5 433.6 476.4 432.9 477 432.4 477.4 432.1 478.5 432.7 479.3L445.1 493.9 440.6 506.5 432.1 494 428.6 508.7 419.9 498.4 426.5 480.3C426.8 479.2 426.2 478.5 425.5 478.2 424.8 477.9 423.9 478.3 423.4 479.2L417.7 495.7 412.1 489.1 414.8 480.9C415.4 480.1 415 479.1 413.9 478.8 413.2 478.5 412.3 478.9 412 480L409.6 486.2 402.4 477.6C401.8 476.9 400.9 476.8 400.1 477.4S399.3 478.9 399.9 479.7L407.2 488.2 400.7 489.5C399.6 489.6 399 490.5 399.2 491.2 399.3 492.3 400.2 492.8 401.1 492.5L409.6 491.2 415.2 497.8 397.9 500.6C397 501 396.5 501.8 396.6 502.5 396.8 503.7 397.6 504.2 398.6 503.8L417.5 500.5 426.1 510.7 411.1 511.7 422 522.2 408.8 524.5 396.5 509.8C395.9 509.1 394.7 509.2 394.2 509.6 393.5 510.2 393.4 511.1 394 511.9L405.4 525.3 396.6 526.8 391 520.2C390.4 519.5 389.5 519.4 388.8 520 388.3 520.5 388 521.6 388.6 522.3L392.9 527.4 382.1 529.5C380.9 529.6 380.4 530.5 380.8 531.4 381 532.1 381.6 532.8 382.5 532.4L393.6 530.7 391.4 537.1C391.1 537.7 391.5 538.7 392.2 538.9 392.8 539.2 393.5 539.1 393.8 538.9 394 538.7 394.3 538.4 394.3 538L397.2 530.1 405.8 528.3 399.6 544.8C399.6 545.7 399.9 546.6 400.6 546.9 401.2 547.2 401.9 547 402.4 546.6 402.7 546.4 402.7 546.4 402.7 546L409.5 527.7 422.6 525.4 415.8 539.1 430.5 534.7 426 547.3 406.8 550.9C406.1 551 405.4 551.7 405.5 552.8 405.7 553.5 406.6 554 407.5 554.1L424.8 550.8 421.6 558.9 413.3 560.5C412.4 560.4 411.9 561.3 412 562.4 412.1 563.1 413 563.7 413.9 563.7L420.4 562.5 416.8 573.1C416.2 573.9 416.8 574.7 417.7 575.2 418.2 575.2 418.9 575.1 419.1 574.8 419.3 574.6 419.6 574.4 419.6 574L423.5 563.6 427.8 568.8C428.4 569.5 429.6 569.4 430 569L430 569C430.8 568.3 430.9 567.4 430.2 566.7L424.7 560.1 427.9 552 439 565.2C439.6 565.9 440.5 566 441.3 565.4S442.1 563.9 441.4 563.1L429.1 548.4 433.5 535.9 442 548.4 445.5 533.7 454.2 544 447.7 562.1C447.3 563.2 448 563.9 448.6 564.2 449.3 564.5 450.2 564.1 450.7 563.2L456.7 546.9 462 553.3 459.3 561.5C458.8 562.3 459.1 563.3 460.3 563.6 460.9 563.9 461.9 563.5 462.4 562.6L464.5 556.2 471.7 564.8C472.4 565.5 473.3 565.6 474 565S474.8 563.5 474.2 562.7L467 554.2 473.4 552.9C473.9 552.9 474.1 552.7 474.4 552.5 474.9 552.1 474.9 551.7 474.9 551.2 474.8 550.1 473.9 549.5 473 549.9L464.5 551.2 458.9 544.6 476.2 541.8C476.4 541.6 476.7 541.4 476.9 541.2 477.4 540.7 477.4 540.3 477.5 539.8 477.4 538.7 476.5 538.2 475.6 538.5L456.6 541.9 448 531.7 463.1 530.7 452.1 520.2 465.3 517.9 477.6 532.6C478.3 533.3 479.4 533.2 479.9 532.8 480.6 532.2 480.7 531.3 480.1 530.5L469 517.3 477.5 515.5 483.1 522.2C483.7 522.9 484.6 523 485.3 522.3S486.1 520.8 485.5 520.1L481.2 515 492 512.9C492.5 513 492.7 512.8 493 512.5 493.2 512.3 493.5 511.7 493.3 511 493.2 510.3 492.6 509.6 491.6 509.9ZM455.8 528L443.5 528.8 440.6 540.8 433.6 530.4 421.9 534 427.2 522.8 418.3 514.4 430.7 513.6 433.5 501.6 440.4 511.7 452.2 508.4 446.8 519.3 455.8 528Z" fill="rgba(51, 121, 194, 0.58)"></path><path d="M137.4 134.8L132.2 109.8 137.4 102.1 139.2 110.5C139.1 111.5 140.1 111.9 141 111.9 141.7 111.6 142.4 110.7 142.1 110.1L139.9 98.4 144.8 90.7 148.8 98.9 145 110.2C145 110.2 144.9 110.6 144.9 110.6 144.9 111.2 145.5 111.9 146.1 112.2 147.1 112.3 147.7 112 148.1 111.1L150.8 102.9 154.8 111.1 147 135.4C147 135.4 146.7 135.7 146.7 135.7 146.6 136.3 147.2 137 147.9 137.3 148.8 137.7 149.8 137.1 149.9 136.2L156.9 115.1 162 125 158.9 134.4C158.9 134.4 158.9 134.4 158.9 134.8 158.9 135.4 159.2 136.1 159.8 136.4 160.7 136.5 161.7 136.2 162.1 135.3L164.1 129 167.8 136.3C168.1 137.2 169 137.3 169.7 137 170.7 136.7 171 135.8 170.4 134.8L167 127.6 173 129.8C173.9 129.9 174.9 129.6 175 128.7 175.4 127.7 175.1 127.1 174.1 126.7L164.7 123.6 159.8 113.7 181.2 120.7C181.8 121 182.8 120.5 183.2 119.5 183.2 118.9 183 117.9 182 117.5L157.8 109.7 153.8 101.5 162 104.2C162.9 104.6 163.6 103.9 164 103 164.3 102.4 163.8 101.4 163.1 101L151.8 97.5 147.5 89.2 156.7 89.8 164.6 98.6C165.2 99.2 166.1 99.3 166.8 98.7 167.5 98.4 167.5 97.1 166.9 96.5L161.2 90 170.5 90.6 187.3 109.8C187.9 110.5 188.9 110.6 189.5 110 190.2 109.4 190.3 108.4 189.7 107.7L174.9 90.8 185.8 91.5 192.4 98.9C193 99.6 194 99.6 194.7 99 195.3 98.4 195.4 97.5 194.8 96.8L190.6 91.7 198.6 92.2C199.5 92.3 200.2 91.7 200.3 90.7 200.3 89.8 199.7 89.1 198.8 89L190.8 88.6 195.5 84.3C196.2 83.7 196.3 82.8 195.7 82.1S194.1 81.4 193.4 82L186.3 88.3 175.1 87.6 191.7 72.9C192.4 72.3 192.4 71.3 191.8 70.7 191.2 70 190.3 69.9 189.6 70.5L170.7 87.4 161.4 86.8 167.8 81.1C168.5 80.5 168.6 79.6 168 78.9 167.4 78.2 166.4 78.1 165.7 78.8L156.9 86.6 148 86 152.9 78.6 164.6 76.1C165.2 75.8 165.9 74.9 165.7 74.3 165.4 73.3 164.8 72.9 163.8 72.9L155.4 74.6 160.3 67.2 185.3 61.9C186.3 61.7 186.6 61.1 186.7 60.1 186.4 59.1 185.5 58.8 184.8 58.7L162.8 63.2 169.1 53.9 178.5 51.9C179.5 52 179.8 51 179.9 50.1 179.6 49.4 178.7 48.7 177.7 49L171.6 50.2 175.8 43.4C176.5 42.8 176.2 41.9 175.3 41.2 174.7 40.8 173.7 41.1 173.3 41.7L168.8 48.5 167.5 42C167.3 41 166.3 40.6 165.7 40.9 164.7 40.9 164.4 41.5 164.3 42.1 164.3 42.4 164.3 42.4 164.3 42.8L166.3 52.2 160 61.4 155.5 39.7C155.6 38.7 154.6 38.4 153.7 38.3 153 38.6 152.6 39.2 152.6 39.8 152.6 40.2 152.6 40.2 152.6 40.2L157.5 65.4 152.6 72.9 150.8 64.4C150.6 63.4 150 63.1 149 63 148.3 63.3 147.7 63.9 147.6 64.5 147.6 64.9 147.6 64.9 147.6 65.2L150.1 76.9 145.2 84.3 141.2 76.4 144.7 65C145.1 64.1 144.5 63.1 143.9 62.7 142.9 62.7 142 62.9 141.9 63.9L139.2 72.1 134.8 64.1 143 39.6C143.4 39 142.8 38 142.2 37.6 141.2 37.6 140.2 37.8 139.8 38.8L132.8 59.8 128 49.9 131.1 40.8C131.4 39.9 130.9 38.9 129.9 38.8 129.3 38.5 128.3 38.7 127.9 39.7L126 46 122.2 38.7C121.9 38 121 37.7 120 37.9 119.7 38.2 119.3 38.9 119.3 39.5 119.3 39.5 119.3 39.8 119.3 40.1L123 47.4 116.7 45.4C116.1 45.1 115.1 45.7 114.7 46.3 114.7 46.6 114.7 46.6 114.7 46.6 114.7 47.6 115.3 48.2 115.9 48.3L125 51.4 130.2 61.3 108.8 54.3C107.9 54.2 107.2 54.5 106.8 55.4 106.8 55.4 106.8 55.7 106.8 55.7 106.8 56.4 107 57 108 57.4L132.2 65.6 136.2 73.5 128 70.8C127.1 70.7 126.1 71 126 71.9 125.7 71.9 125.7 72.2 125.7 72.2 125.7 72.9 126.3 73.6 126.9 73.9L138.2 77.5 142.2 85.7 133.3 85.2 125.5 76.4C124.9 75.7 123.6 75.6 122.9 76.2 122.6 76.9 122.5 77.8 122.8 78.5L128.8 84.9 119.5 84.4 102.7 65.4C102.1 64.8 101.1 64.7 100.5 65.3 99.8 65.9 99.7 66.9 100.3 67.6L115.1 84.1 103.9 83.5 97.6 76.4C97 75.7 96 75.6 95.3 76.2S94.6 77.8 95.2 78.5L99.4 83.2 91.4 82.7C90.5 82.7 89.8 83.3 89.7 84.2 89.7 85.2 90.3 85.9 91.2 85.9L99.2 86.4 94.5 90.9C94.1 91.2 93.8 91.5 93.8 91.8 93.8 92.2 94.1 92.8 94.4 93.2 95 93.8 95.9 93.9 96.6 93.3L103.7 86.7 114.9 87.3 98.3 102.4C98 102.7 97.6 103 97.6 103.3 97.6 103.6 97.9 104.3 98.2 104.6 98.8 105.3 99.7 105.3 100.4 104.7L119.4 87.6 128.6 88.1 121.9 93.8C121.5 94.1 121.5 94.8 121.5 95.1 121.5 95.4 121.4 95.7 121.8 96.1 122.4 96.7 123.6 96.8 124 96.2L133.1 88.4 142 88.9 137.1 96.6 125.4 98.8C124.8 99.1 124.1 99.7 124.1 100.4 124 100.7 124 100.7 124.4 100.7 124.3 101.6 125.2 102.3 126.2 102.1L134.6 100.3 129.7 108.1 104.4 113C103.8 113.3 103.4 113.9 103.4 114.5 103.3 114.8 103.3 114.8 103.3 114.8 103.6 115.8 104.2 116.5 105.2 116.2L127.2 111.8 120.9 121 111.5 123C110.5 123.3 110.2 123.9 110.1 124.5 110.1 124.5 110.1 124.9 110.1 124.9 110.4 125.8 111.3 126.2 112 126.3L118.5 124.7 113.9 131.5C113.9 131.8 113.9 132.1 113.9 132.5 113.8 132.8 114.1 133.4 114.4 133.8 115.4 134.1 116.3 134.2 116.7 133.3L121.3 126.5 122.5 133C122.7 133.9 123.7 134.3 124.3 134.3 125.3 134.1 125.7 133.1 125.7 132.2L123.7 122.8 129.7 113.5 134.2 135.2C134.5 136.2 135.4 136.9 136 136.6 137 136.4 137.7 135.8 137.4 134.8Z" fill="rgba(51, 121, 194, 0.58)"></path><path d="M1369.2 441.1L1375.1 416.2 1383.2 411.6 1381.2 419.9C1380.7 420.8 1381.4 421.5 1382.2 422 1382.9 422 1384 421.5 1384 420.7L1387 409.3 1394.8 404.4 1394.9 413.6 1386.5 422.1C1386.5 422.1 1386.4 422.4 1386.4 422.4 1386.1 423 1386.3 423.8 1386.7 424.4 1387.6 424.9 1388.3 424.9 1389 424.2L1395 418 1395.1 427.2 1377.6 445.7C1377.6 445.7 1377.1 445.8 1377.1 445.8 1376.8 446.4 1377.1 447.3 1377.5 447.8 1378.2 448.6 1379.3 448.5 1379.8 447.7L1395.2 431.6 1395.6 442.8 1388.7 450C1388.7 450 1388.7 450 1388.6 450.3 1388.3 450.8 1388.2 451.6 1388.6 452.1 1389.5 452.6 1390.5 452.8 1391.2 452.1L1395.7 447.3 1396 455.4C1395.8 456.4 1396.6 456.9 1397.3 456.9 1398.3 457.1 1399.1 456.4 1399 455.3L1399 447.3 1403.4 451.9C1404.2 452.3 1405.2 452.5 1405.7 451.7 1406.4 451 1406.5 450.3 1405.8 449.5L1398.6 442.7 1398.5 431.6 1414.8 447.2C1415.2 447.7 1416.3 447.6 1417.1 447 1417.4 446.4 1417.5 445.4 1416.9 444.7L1398.4 427.2 1398.3 418 1404.5 424C1405.2 424.7 1406 424.5 1406.8 423.8 1407.4 423.4 1407.3 422.2 1406.9 421.6L1398.2 413.6 1397.8 404.2 1405.9 408.7 1409.2 420C1409.5 420.9 1410.3 421.3 1411.2 421.1 1411.9 421.1 1412.5 420 1412.3 419.1L1409.9 410.9 1418 415.3 1424.9 440C1425.2 440.8 1426 441.3 1426.9 441 1427.8 440.8 1428.2 439.9 1428 439.1L1421.9 417.5 1431.5 422.7 1434.2 432.3C1434.5 433.2 1435.3 433.6 1436.2 433.4 1437.1 433.1 1437.5 432.3 1437.3 431.4L1435.7 425.1 1442.7 428.9C1443.5 429.4 1444.4 429.1 1444.9 428.3 1445.3 427.4 1445.1 426.6 1444.2 426.1L1437.2 422.3 1443.3 420.5C1444.2 420.2 1444.6 419.4 1444.4 418.5S1443.3 417.2 1442.4 417.4L1433.3 420.1 1423.5 414.7 1444.8 408.5C1445.6 408.3 1446.1 407.4 1445.8 406.5 1445.6 405.7 1444.8 405.2 1443.9 405.5L1419.5 412.5 1411.4 408.1 1419.7 405.7C1420.5 405.4 1421 404.6 1420.7 403.7 1420.5 402.8 1419.7 402.4 1418.8 402.6L1407.5 405.9 1399.6 401.6 1407.3 397 1418.9 399.8C1419.6 399.8 1420.6 399.3 1420.7 398.5 1420.8 397.6 1420.4 397 1419.6 396.5L1411.2 394.5 1418.9 389.9 1443.7 395.9C1444.7 396 1445.3 395.6 1445.7 394.8 1445.9 393.8 1445.2 393.1 1444.7 392.8L1422.8 387.3 1432.5 381.7 1441.9 383.9C1442.7 384.4 1443.4 383.7 1443.9 382.8 1443.9 382.1 1443.4 381.1 1442.4 380.9L1436.3 379.4 1443.1 375.1C1443.9 374.8 1444.1 373.8 1443.6 372.8 1443.2 372.2 1442.2 372 1441.6 372.4L1434.6 376.6 1436.2 370.2C1436.4 369.2 1435.7 368.5 1435 368.5 1434.2 368 1433.6 368.4 1433.3 369 1433.1 369.2 1433.1 369.2 1433 369.5L1430.7 378.9 1421.1 384.5 1426.3 363C1426.8 362.1 1426.1 361.4 1425.3 360.9 1424.6 360.9 1424 361.3 1423.7 361.9 1423.5 362.1 1423.5 362.1 1423.5 362.1L1417.1 387.1 1409.5 391.7 1411.5 383.3C1411.7 382.3 1411.3 381.7 1410.5 381.2 1409.7 381.2 1408.9 381.5 1408.6 382 1408.4 382.3 1408.4 382.3 1408.3 382.6L1405.5 394.2 1397.9 398.8 1397.7 389.9 1405.7 381.2C1406.5 380.5 1406.4 379.4 1406 378.8 1405.1 378.3 1404.1 378.1 1403.7 379L1397.7 385.2 1397.2 376.1 1415.1 357.5C1415.7 357.1 1415.6 356 1415.2 355.4 1414.3 354.9 1413.4 354.7 1412.6 355.4L1397.2 371.4 1397.1 360.4 1403.8 353.5C1404.5 352.8 1404.4 351.7 1403.6 351.2 1403.2 350.6 1402.2 350.4 1401.5 351.1L1397 355.9 1396.7 347.8C1396.8 347.1 1396.1 346.3 1395.1 346.1 1394.6 346.3 1394 346.7 1393.7 347.2 1393.7 347.2 1393.6 347.5 1393.4 347.8L1393.7 356 1388.8 351.5C1388.4 350.9 1387.3 351 1386.7 351.4 1386.5 351.7 1386.5 351.7 1386.5 351.7 1386.1 352.5 1386.3 353.4 1386.9 353.7L1393.8 360.4 1394.2 371.6 1377.9 356.1C1377.1 355.6 1376.4 355.6 1375.6 356.3 1375.6 356.3 1375.5 356.5 1375.5 356.5 1375.2 357.1 1375.1 357.8 1375.8 358.6L1394.2 376.3 1394.4 385.2 1388.2 379.2C1387.4 378.8 1386.4 378.6 1385.9 379.4 1385.6 379.3 1385.5 379.6 1385.5 379.6 1385.1 380.1 1385.4 381 1385.8 381.6L1394.5 389.7 1394.6 398.8 1386.7 394.5 1383.5 383.2C1383.2 382.3 1382.1 381.7 1381.2 382 1380.6 382.4 1380.2 383.2 1380.1 383.9L1382.8 392.3 1374.7 387.9 1367.6 363.5C1367.4 362.7 1366.5 362.2 1365.6 362.5 1364.8 362.7 1364.3 363.6 1364.6 364.4L1370.8 385.7 1360.9 380.3 1358.3 371.2C1358 370.3 1357.2 369.9 1356.3 370.1S1355 371.2 1355.2 372.1L1357 378.2 1350 374.3C1349.2 373.8 1348.3 374.1 1347.8 374.9 1347.4 375.8 1347.6 376.6 1348.5 377.1L1355.5 381 1349.2 383C1348.8 383.1 1348.4 383.3 1348.2 383.5 1348.1 383.8 1348 384.5 1348.2 385 1348.4 385.8 1349.2 386.3 1350.1 386.1L1359.4 383.1 1369.2 388.5 1347.8 395C1347.3 395.1 1346.9 395.2 1346.7 395.5 1346.6 395.8 1346.6 396.5 1346.7 396.9 1346.9 397.8 1347.8 398.3 1348.6 398L1373.1 390.7 1381.3 395.1 1372.7 397.4C1372.3 397.5 1372 398.1 1371.8 398.4 1371.7 398.6 1371.5 398.9 1371.7 399.4 1371.9 400.2 1373 400.8 1373.6 400.4L1385.2 397.3 1393 401.6 1385.3 406.5 1373.8 403.4C1373.1 403.4 1372.2 403.7 1371.9 404.2 1371.7 404.5 1371.7 404.5 1372 404.7 1371.6 405.5 1372.1 406.5 1373.1 406.7L1381.5 408.8 1373.7 413.6 1348.7 407.2C1348 407.2 1347.4 407.6 1347.1 408.1 1347 408.4 1347 408.4 1347 408.4 1346.8 409.4 1347 410.3 1348 410.5L1369.9 415.9 1360.2 421.5 1350.8 419.3C1349.8 419.1 1349.2 419.5 1348.9 420.1 1348.9 420.1 1348.8 420.4 1348.8 420.4 1348.6 421.4 1349.3 422.1 1349.8 422.4L1356.4 423.8 1349.3 428C1349.2 428.3 1349 428.5 1348.9 428.8 1348.7 429.1 1348.7 429.8 1348.8 430.3 1349.5 431 1350.3 431.5 1351.1 430.8L1358.1 426.6 1356.4 433C1356.3 434 1357 434.7 1357.5 435 1358.5 435.2 1359.3 434.5 1359.7 433.7L1361.9 424.3 1371.3 418.5 1366.1 440.1C1365.9 441.1 1366.4 442.1 1367.1 442.1 1368.1 442.3 1369 442.1 1369.2 441.1Z" fill="rgba(51, 121, 194, 0.58)"></path><path d="M991.3 557.3L999.9 546.3 1003.4 554C1003.7 554.8 1004.8 555.4 1006 555.1 1006.9 554.4 1007.5 553.3 1006.8 552.4L1002.7 542.6 1009.1 533.7 1017.5 554.1C1018.2 555 1019.3 555.5 1020.1 555.2 1021.4 554.6 1022 553.5 1021.3 552.6L1012 530.1 1022 516.8 1027.4 535.2 1037.1 518.6 1043.7 534 1029.2 553.5C1028.8 553.5 1028.8 553.9 1028.7 554.3 1028.6 555.1 1028.9 555.9 1029.7 556.4 1030.4 556.9 1031.7 556.7 1032.5 556L1045.6 538.2 1049.6 548.4 1043.3 556.9C1042.9 557.2 1042.8 557.6 1042.8 558 1042.7 558.4 1043 559.3 1043.8 559.8 1044.5 560.3 1045.7 560 1046.2 559.3L1051.5 552.7 1057.2 565.4C1057.4 566.7 1058.6 566.8 1059.9 566.6 1060.7 566.3 1061.2 565.1 1060.6 563.8L1055.3 551.1 1063.6 552.1C1064.8 552.3 1065.8 551.2 1065.9 550.4 1066 549.2 1065.3 548.3 1064.1 548.2L1053.4 546.8 1049.4 536.7 1070.9 539.3C1072.1 539.5 1072.9 538.8 1073.1 537.6 1073.2 536.8 1072.5 535.5 1071.3 535.3L1047.5 532.4 1040.9 517.1 1059.4 521.4 1050.1 504.9 1066.8 507 1076.1 529.1C1076.8 530.4 1078 530.5 1078.8 530.2 1079.7 529.9 1080.2 528.8 1080 527.5L1071.1 507.5 1081.9 508.8 1086.3 518.6C1086.5 519.9 1087.7 520.4 1089 519.8 1089.8 519.5 1090.4 518.3 1089.7 517.1L1086.6 509.4 1100.5 511.1C1101.7 511.3 1102.6 510.6 1102.8 509.4S1102.2 507.3 1101 507.2L1087.1 505.4 1092 498.8C1092.9 497.7 1092.7 496.5 1091.9 496 1090.8 495 1089.6 495.3 1089 496.4L1082.4 504.9 1071.6 503.5 1085 486.2C1085.6 485.1 1085.3 483.9 1084.6 483.4 1083.5 482.4 1082.3 482.7 1081.7 483.8L1067.3 503 1050.6 501 1063.6 487.2 1044.7 486.9 1054.8 473.7 1078.6 476.6C1079.8 476.7 1080.7 475.6 1080.8 474.8 1080.9 473.7 1080.3 472.8 1079.1 472.6L1057.2 469.9 1064 461.1 1074.7 462.4C1075.9 462.6 1076.8 461.9 1076.9 460.7 1077 459.9 1076.4 458.6 1075.2 458.4L1066.8 457.4 1075 446.3C1076 445.2 1075.7 444 1074.6 443.5 1073.8 443 1072.7 442.8 1072.1 444L1063.5 455 1060 447.3C1059.7 446.5 1058.6 445.9 1057.7 446.2 1056.9 446.5 1056.4 447.3 1056.3 447.7 1056.3 448.1 1056.2 448.5 1056.6 448.9L1060.6 458.7 1054.3 467.6 1045.9 447.2C1045.2 446.3 1044.1 445.7 1043.2 446 1042.4 446.3 1041.9 447.1 1041.8 447.9 1041.8 448.3 1041.8 448.3 1042.1 448.7L1051.4 471.2 1041.3 484.5 1035.9 466.1 1026.2 482.6 1019.7 467.3 1034.2 447.8C1034.7 447 1034.8 445.8 1033.7 444.9 1033 444.4 1031.7 444.6 1030.8 445.3L1017.8 463.1 1013.8 452.9 1020.1 444.4C1021 443.7 1020.7 442.5 1019.6 441.5 1018.9 441 1017.6 441.3 1016.7 442L1011.9 448.6 1006.2 435.9C1006 434.6 1004.8 434.5 1003.5 434.7 1003.1 435.1 1002.6 435.8 1002.5 436.2 1002.5 436.6 1002.4 437 1002.8 437.4L1008.1 450.2 999.7 449.2C998.5 449 997.6 450.1 997.5 450.9L997.5 450.9C997.4 452.1 998.1 453 999.2 453.1L1010 454.4 1014 464.6 992.5 462C991.3 461.8 990.4 462.5 990.3 463.7S990.8 465.8 992 465.9L1015.8 468.9 1022.4 484.2 1004 479.9 1013.3 496.4 996.6 494.3 987.2 472.2C986.6 470.9 985.4 470.8 984.5 471.1 983.7 471.4 983.2 472.5 983.4 473.8L991.8 493.7 981.5 492.5 977.1 482.6C976.8 481.4 975.7 480.9 974.4 481.5 973.6 481.8 973 483 973.3 484.2L976.7 491.9 962.9 490.2C961.7 490 960.8 490.7 960.6 491.9S961.2 494 962.4 494.1L976.3 495.8 971.4 502.5C971 502.9 970.9 503.2 970.9 503.6 970.8 504.4 971.1 504.9 971.5 505.3 972.6 506.3 973.8 506 974.3 504.9L981 496.4 991.7 497.7 978.3 515C978.3 515.4 978.2 515.8 978.2 516.2 978.1 517 978.4 517.5 978.8 517.9 979.9 518.9 981.1 518.6 981.7 517.5L996.1 498.3 1012.8 500.3 999.8 514.1 1018.7 514.4 1008.6 527.6 984.8 524.7C983.6 524.6 982.7 525.7 982.6 526.4 982.4 527.6 983.1 528.5 984.3 528.7L1005.8 531.3 999.4 540.2 988.7 538.9C987.5 538.7 986.6 539.4 986.5 540.6S987 542.7 988.2 542.9L996.5 543.9 988.3 555C987.9 555.3 987.8 555.7 987.8 556.1 987.7 556.5 988 557.3 988.8 557.8 989.5 558.3 990.7 558.5 991.3 557.3ZM1008.7 510.3L1019.4 499.1 1011.8 485.7 1027.1 489.2 1034.7 476 1039.4 490.7 1054.6 491 1044 502.2 1051.6 515.6 1036.7 512.1 1028.7 525.3 1024.4 510.6 1008.7 510.3Z" fill="rgba(51, 121, 194, 0.58)"></path></g><defs><mask id="SvgjsMask1000"><rect width="1440" height="560" fill="#ffffff"></rect></mask><filter id="SvgjsFilter1001"><feGaussianBlur stdDeviation="1"></feGaussianBlur></filter></defs></svg>